<?xml version="1.0" encoding="utf-8"?>
<!-- Generator: Adobe Illustrator 24.0.1, SVG Export Plug-In . SVG Version: 6.00 Build 0)  -->
<svg version="1.1" id="Layer_1" xmlns="http://www.w3.org/2000/svg" xmlns:xlink="http://www.w3.org/1999/xlink" x="0px" y="0px"
	 viewBox="0 0 100 100" style="enable-background:new 0 0 100 100;" xml:space="preserve">
<style type="text/css">
	.st0{display:none;}
	.st1{display:inline;}
	.st2{fill:#E56E1F;}
	.st3{fill:#A48AE2;}
</style>
<g id="Layer_1_2_" class="st0">
	<g id="Layer_1_1_" class="st1">
		<g>
			<path class="st2" d="M92.5,26.2c-3.1,1.4-6.5,2.3-10,2.7c3.6-2.1,6.4-5.6,7.6-9.7c-3.4,2-7.1,3.5-11.1,4.2
				c-3.1-3.4-7.7-5.5-12.7-5.5c-9.6,0-17.4,7.8-17.4,17.4c0,1.4,0.2,2.7,0.4,4c-14.5-0.8-27.4-7.6-35.9-18.2
				c-1.5,2.5-2.4,5.6-2.4,8.8c0,6,3.1,11.4,7.7,14.5c-2.9-0.1-5.5-0.8-7.9-2.2v0.3c0,8.4,6,15.5,13.9,17.1c-1.4,0.4-3,0.6-4.6,0.6
				c-1.1,0-2.2-0.1-3.3-0.3c2.2,6.9,8.7,12,16.3,12.1c-5.9,4.7-13.5,7.5-21.7,7.5c-1.4,0-2.8-0.1-4.2-0.3C15,84.1,24.1,87,34,87
				c32,0,49.5-26.5,49.5-49.5l-0.1-2.3C87.2,32.8,90.2,29.7,92.5,26.2L92.5,26.2z"/>
		</g>
	</g>
	<g id="square_icons" class="st1">
		<g>
			<polygon class="st3" points="92,41.5 87.4,40.9 97.7,34.7 84.5,35.6 86.6,34.2 74.4,24.7 60.6,20.8 64.4,18 70.3,16.4 60.3,17 
				63.3,14.3 56.1,19.6 60.1,15.4 50,27.1 43.7,41.5 36.4,37.2 23.9,33.5 11.4,27.9 21.9,39.5 14,42.3 27.3,49.6 22.3,53.4 
				33.2,57.5 33.5,63.9 40.5,66.3 29,73.3 16.1,75.7 3.8,71.6 13.3,81.2 26.4,85.5 39.8,88.1 53.6,86.1 65.9,79.7 76.7,71.1 
				84.1,59.5 89.5,47.1 			"/>
		</g>
	</g>
</g>
<g id="Capa_1">
	<g>
		<g>
			<path d="M96.7,25c-3.2,1.4-6.7,2.4-10.4,2.8c3.7-2.2,6.6-5.8,7.9-10c-3.5,2.1-7.4,3.6-11.5,4.4c-3.3-3.5-8-5.7-13.2-5.7
				c-10,0-18.1,8.1-18.1,18.1c0,1.4,0.2,2.8,0.5,4.1C37,38,23.7,30.8,14.8,19.9c-1.6,2.7-2.4,5.8-2.4,9.1c0,6.3,3.2,11.8,8,15
				c-3-0.1-5.7-0.9-8.2-2.3v0.2c0,8.7,6.2,16,14.5,17.7c-1.5,0.4-3.1,0.6-4.8,0.6c-1.2,0-2.3-0.1-3.4-0.3c2.3,7.2,9,12.4,16.9,12.5
				c-6.2,4.8-14,7.7-22.4,7.7c-1.5,0-2.9-0.1-4.3-0.2c8,5.1,17.5,8.1,27.7,8.1c33.2,0,51.4-27.5,51.4-51.4l-0.1-2.3
				C91.2,31.8,94.3,28.7,96.7,25z"/>
		</g>
	</g>
</g>
</svg>
