<?xml version="1.0" encoding="utf-8"?>
<!-- Generator: Adobe Illustrator 24.0.1, SVG Export Plug-In . SVG Version: 6.00 Build 0)  -->
<svg version="1.1" id="Layer_1" xmlns="http://www.w3.org/2000/svg" xmlns:xlink="http://www.w3.org/1999/xlink" x="0px" y="0px"
	 viewBox="0 0 100 100" style="enable-background:new 0 0 100 100;" xml:space="preserve">
<style type="text/css">
	.st0{display:none;}
	.st1{display:inline;}
	.st2{fill:#994A4A;}
	.st3{fill:#A48AE2;}
</style>
<g id="Layer_1_2_" class="st0">
	<g id="Layer_1_1_" class="st1">
		<path class="st2" d="M93.7,58.2v32.3H75V60.4c0-7.6-2.7-12.7-9.5-12.7c-5.2,0-8.3,3.5-9.6,6.9c-0.5,1.2-0.6,2.9-0.6,4.6v31.5H36.5
			c0,0,0.3-51.1,0-56.4h18.7v8c0,0.1-0.1,0.1-0.1,0.2h0.1v-0.2c2.5-3.8,6.9-9.3,16.9-9.3C84.5,32.9,93.7,40.9,93.7,58.2L93.7,58.2z
			 M16.9,7c-6.4,0-10.6,4.2-10.6,9.7c0,5.4,4.1,9.7,10.4,9.7h0.1c6.5,0,10.6-4.3,10.6-9.7C27.2,11.2,23.3,7,16.9,7L16.9,7z
			 M7.4,90.6h18.7V34.2H7.4V90.6z"/>
	</g>
	<g id="square_icons" class="st1">
		<g>
			<g>
				<polygon class="st3" points="12.2,94.1 29.8,93.6 29.7,73.3 30.4,52.9 30.2,32.3 12.7,32.6 12.5,52.9 12.8,73.3 				"/>
			</g>
			<g>
				<polygon class="st3" points="79.3,36.2 56.3,35.3 56.4,32 39,32.6 39.3,52.9 39,73.3 38.7,93.9 56.2,93.7 55.8,74.2 56.4,54.6 
					63.7,51.5 71.1,50.8 73.3,56.6 74,75.2 74,93.6 91.2,93.7 91.6,75.2 91.5,56.6 				"/>
			</g>
			<g>
				<polygon class="st3" points="21.3,4 10.1,15 21.3,25.9 32.1,15 				"/>
			</g>
		</g>
	</g>
</g>
<g id="Layer_2_1_">
	<g id="Capa_1">
		<g>
			<path id="LinkedIn" d="M89.7,58.6v29.3h-17V60.6c0-6.9-2.5-11.5-8.6-11.5c-4.7,0-7.5,3.2-8.7,6.2c-0.4,1.1-0.6,2.6-0.6,4.1v28.5
				h-17c0,0,0.2-46.3,0-51.1h17V44c0,0.1-0.1,0.1-0.1,0.2h0.1V44c2.3-3.5,6.3-8.4,15.3-8.4C81.3,35.6,89.7,42.9,89.7,58.6z
				 M20.1,12.2c-5.8,0-9.6,3.8-9.6,8.8c0,4.9,3.7,8.8,9.4,8.8H20c5.9,0,9.6-3.9,9.6-8.8C29.4,16,25.9,12.2,20.1,12.2z M11.5,87.9h17
				V36.8h-17V87.9z"/>
		</g>
	</g>
</g>
</svg>
