<?xml version="1.0" encoding="utf-8"?>
<!-- Generator: Adobe Illustrator 25.4.1, SVG Export Plug-In . SVG Version: 6.00 Build 0)  -->
<svg version="1.1" id="Layer_1" xmlns="http://www.w3.org/2000/svg" xmlns:xlink="http://www.w3.org/1999/xlink" x="0px" y="0px"
	 viewBox="0 0 100 100" style="enable-background:new 0 0 100 100;" xml:space="preserve">
<style type="text/css">
	.st0{fill:#141613;}
</style>
<path class="st0" d="M50,3.5C24.4,3.5,3.5,24.4,3.5,50c0,25.6,20.9,46.5,46.5,46.5c25.6,0,46.5-20.9,46.5-46.5
	C96.5,24.4,75.6,3.5,50,3.5z M71.7,78.3c-1.5-7.4-3.6-14.8-6.2-22c5.9-0.6,12.4-0.4,19.4,0.7C83.2,65.5,78.5,73.1,71.7,78.3z
	 M49.4,45.9c0.4,0.9,0.8,1.8,1.2,2.7c-11.7,4-21.5,11.6-29.3,22.7c-4.4-6-6.9-13.2-7-20.7C27.7,50.4,39.5,48.9,49.4,45.9z
	 M54.6,32.5c-3.3-6-7.1-11.9-11.2-17.5c2.2-0.4,4.4-0.6,6.5-0.6c7.4,0,14.5,2.3,20.5,6.5C66.5,25.6,61.2,29.5,54.6,32.5z M54.8,58.5
	c3,8.2,5.3,16.6,6.9,25.1c-3.8,1.3-7.7,2-11.6,2c-7.5,0-14.7-2.3-20.8-6.7C36.1,68.6,44.4,62,54.8,58.5z M61.3,46
	c-0.6-1.4-1.2-2.7-1.8-3.9c7.6-3.5,13.9-8.1,18.8-13.7c4,5.2,6.4,11.2,7.1,17.7c-4.5-0.7-8.9-1-13.1-1C68.5,45.2,64.9,45.4,61.3,46z
	 M15.9,39.7c2.7-8.9,8.7-16.4,16.9-20.9c4.2,5.6,8.1,11.4,11.4,17.3C36.2,38.3,26.7,39.5,15.9,39.7z"/>
</svg>
