<?xml version="1.0" encoding="utf-8"?>
<!-- Generator: Adobe Illustrator 24.0.1, SVG Export Plug-In . SVG Version: 6.00 Build 0)  -->
<svg version="1.1" id="Layer_1" xmlns="http://www.w3.org/2000/svg" xmlns:xlink="http://www.w3.org/1999/xlink" x="0px" y="0px"
	 viewBox="0 0 25 25" style="enable-background:new 0 0 25 25;" xml:space="preserve">
<style type="text/css">
	.st0{fill-rule:evenodd;clip-rule:evenodd;}
</style>
<title>Shape</title>
<desc>Created with Sketch.</desc>
<g id="Layouts">
	<g id="Mobile-Copy-2" transform="translate(-248.000000, -613.000000)">
		<g id="Hero" transform="translate(10.000000, 69.000000)">
			<g id="social" transform="translate(6.000000, 544.000000)">
				<g id="vimeo" transform="translate(232.000000, 0.000000)">
					<path id="Shape" class="st0" d="M12.5,0C5.6,0,0,5.6,0,12.5S5.6,25,12.5,25S25,19.4,25,12.5S19.4,0,12.5,0z M19.5,10.7
						c-0.4,1.2-1.1,2.2-1.8,3.2c-1,1.4-2,2.7-3.4,3.9c-0.6,0.5-1.3,1-2.2,1.2c-0.6,0.1-1.1,0-1.5-0.4c-0.6-0.6-0.9-1.3-1.2-2.1
						c-0.4-1.5-0.8-3-1.2-4.4c-0.1-0.5-0.3-1-0.5-1.4c-0.1-0.1-0.1-0.2-0.2-0.3C7.2,9.7,7,9.6,6.4,9.9c-0.2,0.1-0.4,0.2-0.6,0.4
						c-0.1,0.1-0.2,0.1-0.2,0c-0.2-0.2-0.3-0.4-0.5-0.6C5.1,9.6,5,9.5,5.1,9.4c1.1-0.9,2-1.9,3.1-2.7c0.4-0.3,0.8-0.5,1.4-0.5
						c0.5,0,1,0.2,1.3,0.7c0.4,0.5,0.5,1.1,0.6,1.6c0.2,1.3,0.4,2.7,0.7,4c0.1,0.4,0.2,0.9,0.5,1.3c0.3,0.5,0.6,0.6,1,0.1
						c0.8-0.9,1.4-1.9,1.8-3c0.1-0.3,0.1-0.5,0.1-0.8c0-0.5-0.3-0.8-0.8-0.9c-0.4,0-0.7,0-1,0.1c-0.2,0.1-0.2,0-0.2-0.2
						c0.3-1,0.8-1.8,1.6-2.5c1-0.7,2.1-0.9,3.2-0.7c0.9,0.2,1.3,0.9,1.4,1.7c0,0.2,0.1,0.4,0.1,0.6C19.9,9.3,19.8,10,19.5,10.7z"/>
				</g>
			</g>
		</g>
	</g>
</g>
</svg>
