<?xml version="1.0" encoding="utf-8"?>
<!-- Generator: Adobe Illustrator 24.0.1, SVG Export Plug-In . SVG Version: 6.00 Build 0)  -->
<svg version="1.1" id="Layer_1" xmlns="http://www.w3.org/2000/svg" xmlns:xlink="http://www.w3.org/1999/xlink" x="0px" y="0px"
	 viewBox="0 0 16 16" style="enable-background:new 0 0 16 16;" xml:space="preserve">
<g transform="translate(304.000000, 29.000000)">
	<path id="Path" d="M-289.1-29h-5.5c-0.5,0-1,0.4-1,1s0.4,1,1,1h3.1l-5.2,5.2c-0.2,0.2-0.3,0.4-0.3,0.7s0.1,0.5,0.3,0.7
		c0.2,0.2,0.4,0.3,0.7,0.3c0.3,0,0.5-0.1,0.7-0.3l5.2-5.2v3.1c0,0.5,0.4,1,1,1s1-0.4,1-1V-28C-288.1-28.6-288.5-29-289.1-29z"/>
	<path id="Path_1_" d="M-292.7-14.8h-9.6v-9.6h7.2l1.7-1.7h-9.7c-0.5,0-0.8,0.4-0.8,0.8v11.3c0,0.5,0.4,0.8,0.8,0.8h11.3
		c0.5,0,0.8-0.4,0.8-0.8v-9.7l-1.7,1.7V-14.8z"/>
</g>
</svg>
