<?xml version="1.0" encoding="UTF-8"?>
<svg width="25px" height="25px" viewBox="0 0 25 25" version="1.1" xmlns="http://www.w3.org/2000/svg" xmlns:xlink="http://www.w3.org/1999/xlink">
    <title>post/type/icon/article</title>
    <defs>
        <polygon id="path-1" points="0 21.0478007 17.1372229 21.0478007 17.1372229 0.101999994 0 0.101999994"></polygon>
    </defs>
    <g id="post/type/icon/article" stroke="none" stroke-width="1" fill="none" fill-rule="evenodd">
        <rect id="Rectangle" x="0" y="0" width="25" height="25"></rect>
        <g id="icon" transform="translate(4.000000, 2.000000)">
            <mask id="mask-2" fill="white">
                <use xlink:href="#path-1"></use>
            </mask>
            <g id="Clip-5"></g>
            <path d="M16.0072568,0.102356994 C16.7849048,0.102356994 17.1370087,0.459458972 17.1372637,1.24445092 L17.1372637,1.24445092 L17.1372319,15.2664793 L17.1372319,15.2664793 L17.1370087,19.9319718 C17.1370087,20.6800397 16.7748068,21.0471377 16.0312268,21.0472397 C11.0598491,21.0477887 6.08836942,21.0477887 1.11688973,21.0473417 C0.357295778,21.0472397 2.48008646e-05,20.6845277 2.48008646e-05,19.9175898 L2.48008646e-05,19.9175898 L2.48008646e-05,1.23006892 C2.48008646e-05,0.463844971 0.357193778,0.102458994 1.11852173,0.102356994 L1.11852173,0.102356994 Z M10.3468896,15.3306475 L8.53654267,15.3310173 C7.28704275,15.3337713 6.03764483,15.3298953 4.7882469,15.3354033 C4.08077495,15.3384632 3.61912298,15.9528092 3.83199696,16.5915332 C3.97296095,17.0142211 4.32914493,17.2389271 4.8773949,17.2393351 C7.29979275,17.2408651 9.7220886,17.2403684 12.1444864,17.2399471 C12.8646064,17.2397431 13.3095304,16.8707072 13.3056795,16.2795152 C13.3018804,15.6972992 12.8620564,15.3322413 12.1572364,15.3314253 C10.9503725,15.3298953 9.7434066,15.3310173 8.53654267,15.3310173 Z M8.54799472,11.5254612 L4.7645727,11.5315175 C4.60147471,11.5319255 4.42358673,11.5755815 4.27854273,11.6498375 C3.88747476,11.8498595 3.70581277,12.2893774 3.81128076,12.7069654 C3.91940076,13.1350594 4.28547873,13.4277994 4.74488671,13.4295334 C6.01029863,13.4343274 7.27571055,13.4311654 8.54112247,13.4312674 C9.79796639,13.4313694 11.0549123,13.4328994 12.3118582,13.4307574 C12.9164122,13.4297374 13.3503202,13.0265314 13.3481861,12.4758334 C13.3460362,11.9363555 12.9223282,11.5294775 12.3313402,11.5283555 C9.80918639,11.5237655 7.28682855,11.5241735 4.7645727,11.5315175 Z M10.8022354,7.71725067 L9.22257423,7.71830892 C7.73633232,7.71830892 6.25009041,7.71698292 4.7638485,7.71912492 C4.30495053,7.71983892 3.94529856,7.98350891 3.82249056,8.39691488 C3.63725857,9.02033884 4.08636455,9.6142848 4.7708865,9.6198948 C6.02773043,9.6300948 7.28467635,9.6227508 8.54162227,9.6227508 L8.54162227,9.6227508 C9.77296619,9.6235668 11.0045141,9.6266268 12.23596,9.6203028 C12.411196,9.6193848 12.59806,9.60449281 12.759016,9.54278281 C13.182928,9.38009282 13.415284,8.92547885 13.327564,8.49034687 C13.23556,8.0347129 12.86275,7.72259292 12.38182,7.72024692 C11.3287721,7.71484092 10.2757242,7.71830892 9.22257423,7.71830892 Z M10.4668212,3.90883356 L8.61990727,3.90975156 L6.79845513,3.90944556 L4.97707949,3.91066956 C4.8501915,3.91087356 4.72105951,3.91393356 4.59692552,3.93657756 C4.15720354,4.01674955 3.83376156,4.41118353 3.83150469,4.8575355 C3.82917156,5.30449947 4.14781954,5.70393145 4.58631752,5.78706144 C4.72687351,5.81378544 4.8733455,5.81735544 5.01706349,5.81735544 C7.42864934,5.81817144 9.84023519,5.81735544 12.251821,5.81449944 C12.378403,5.81439744 12.508147,5.80715544 12.630751,5.77890144 C13.112293,5.66761945 13.423189,5.17699948 13.328839,4.69168351 C13.234285,4.20534754 12.865759,3.91383156 12.313735,3.91158756 C11.0824931,3.90648756 9.85114919,3.90995556 8.61990727,3.90975156 Z" id="Combined-Shape" fill="#FFFFFF" mask="url(#mask-2)"></path>
        </g>
    </g>
</svg>