<?xml version="1.0" encoding="utf-8"?>
<!-- Generator: Adobe Illustrator 24.0.1, SVG Export Plug-In . SVG Version: 6.00 Build 0)  -->
<svg version="1.1" id="Layer_1" xmlns="http://www.w3.org/2000/svg" xmlns:xlink="http://www.w3.org/1999/xlink" x="0px" y="0px"
	 viewBox="0 0 100 100" style="enable-background:new 0 0 100 100;" xml:space="preserve">
<g id="Layer_1_1_">
	<g>
		<path d="M68.1,82c0-2.7-0.4-4.9-1.1-6.8c-0.5-1.4-1.1-2.5-1.9-3.5c6.1-0.9,12.2-2.6,17-6.6c5.3-4.4,8.9-11.6,8.9-23.3
			c0-3.3-0.6-6.2-1.6-8.9c-1-2.7-2.5-5-4.3-7.1c0.4-1,0.8-2.7,1-5.1c0.2-2.8-0.1-6.5-1.8-10.7l-0.2-0.4l-0.5-0.1
			c0,0-5.3-1.7-16.7,5.9c-2.2-0.6-4.6-1.1-6.9-1.4c-2.5-0.3-5.1-0.5-7.7-0.5l0,0c-2.6,0-5.2,0.2-7.7,0.5c-2.3,0.3-4.7,0.8-6.9,1.4
			c-5.7-3.8-9.8-5.3-12.5-5.8c-1.4-0.3-2.4-0.3-3.1-0.3c-1,0.1-1.8,0.7-1.8,0.7v0.1c-1.7,4.2-2,7.9-1.8,10.7c0.2,2.3,0.6,4.1,1,5.1
			c-1.8,2.1-3.3,4.5-4.3,7.2s-1.6,5.7-1.6,8.9l0,0c0,11.7,3.6,18.8,8.9,23.3c4.8,4,10.9,5.8,17,6.7c-0.5,0.6-0.9,1.3-1.3,2.2
			c-0.6,1.2-1,2.7-1.3,4.3c-2,0.8-5.5,1.8-8.8,0.8c-2.3-0.7-4.7-2.3-6.6-5.6l0,0c-0.2-0.3-3.5-6.1-9.8-6.6h-0.1c0,0-9-0.1-1,5.4
			l0.1,0.1c0,0,3.5,1.6,6.1,8.1c0.2,0.5,3.9,11.7,19.9,8.8c0,1.4,0,2.7,0,3.9h31.4C68.1,90.1,68.1,86,68.1,82z"/>
	</g>
</g>
</svg>
