<?xml version="1.0" encoding="utf-8"?>
<!-- Generator: Adobe Illustrator 24.0.1, SVG Export Plug-In . SVG Version: 6.00 Build 0)  -->
<svg version="1.1" id="Layer_1" xmlns="http://www.w3.org/2000/svg" xmlns:xlink="http://www.w3.org/1999/xlink" x="0px" y="0px"
	 viewBox="0 0 80 80" style="enable-background:new 0 0 80 80;" xml:space="preserve">
<style type="text/css">
	.st0{fill-rule:evenodd;clip-rule:evenodd;fill:#F1CCA2;}
	.st1{fill-rule:evenodd;clip-rule:evenodd;fill:#FFFFFF;}
	.st2{fill-rule:evenodd;clip-rule:evenodd;}
</style>
<g id="Group-Copy">
	<polygon id="Path-33" class="st0" points="12,33.8 16.4,31.7 17.8,29.2 19.3,28 20.9,26.1 25.6,26.1 25.6,21.5 26,20.4 28,20.4 
		40.3,20.4 40.3,25.6 40.3,28 77.1,28 77.1,33.4 57.7,33.4 57.7,42.1 55.6,42.1 55.6,50.2 51.4,50.3 51.4,57.1 46.4,57.1 46.4,59.6 
		27.4,59.6 27,57.4 19.3,57.4 19.3,55.4 12,55.4 12,52.5 11.1,52.5 11.1,37 11.1,33.8 	"/>
	<rect id="Rectangle" x="2.9" y="33.9" class="st1" width="5.3" height="19.3"/>
	<rect id="Rectangle_1_" x="8.2" y="33.9" class="st2" width="2.9" height="19.3"/>
	<rect id="Rectangle-Copy" y="33.9" class="st2" width="2.9" height="19.3"/>
	<rect id="Rectangle_2_" x="2.9" y="30.9" class="st2" width="5.3" height="2.9"/>
	<rect id="Rectangle-Copy-3" x="11.1" y="30.9" class="st2" width="6.4" height="2.9"/>
	<rect id="Rectangle-Copy-5" x="19.3" y="25.1" class="st2" width="6.4" height="2.9"/>
	<rect id="Rectangle-Copy-7" x="27.4" y="17.5" class="st2" width="12.8" height="2.9"/>
	<rect id="Rectangle-Copy-9" x="33.9" y="25.7" class="st2" width="43.2" height="2.9"/>
	<rect id="Rectangle-Copy-11" x="48.5" y="32.7" class="st2" width="28.6" height="2.9"/>
	<rect id="Rectangle-Copy-13" x="47.9" y="42" class="st2" width="9.3" height="2.9"/>
	<rect id="Rectangle-Copy-15" x="45" y="50.2" class="st2" width="9.3" height="2.9"/>
	<rect id="Rectangle-Copy-18" x="27.4" y="59.6" class="st2" width="18.7" height="2.9"/>
	<rect id="Rectangle-Copy-17" x="45" y="56.6" class="st2" width="6.4" height="2.9"/>
	<rect id="Rectangle-Copy-19" x="19.3" y="56.6" class="st2" width="8.2" height="2.9"/>
	<rect id="Rectangle-Copy-20" x="11.1" y="53.1" class="st2" width="8.2" height="2.9"/>
	<rect id="Rectangle-Copy-6" x="24.5" y="20.4" class="st2" width="2.9" height="4.7"/>
	<rect id="Rectangle-Copy-10" x="77.1" y="28.6" class="st2" width="2.9" height="4.1"/>
	<rect id="Rectangle-Copy-12" x="56.6" y="35.6" class="st2" width="2.9" height="6.4"/>
	<polygon id="Rectangle-Copy-16" class="st2" points="51.4,53.1 54.3,53.1 54.3,56.6 51.4,56.6 	"/>
	<rect id="Rectangle-Copy-14" x="54.3" y="45" class="st2" width="2.9" height="5.3"/>
	<rect id="Rectangle-Copy-8" x="40.3" y="20.4" class="st2" width="2.9" height="5.3"/>
	<rect id="Rectangle-Copy-4" x="16.4" y="28" class="st2" width="4.1" height="2.9"/>
	<rect id="Rectangle-Copy-2" x="2.9" y="53.1" class="st2" width="5.3" height="2.9"/>
</g>
</svg>
