<?xml version="1.0" encoding="UTF-8"?>
<svg width="139px" height="30px" viewBox="0 0 139 30" version="1.1" xmlns="http://www.w3.org/2000/svg" xmlns:xlink="http://www.w3.org/1999/xlink">
    <title>logo</title>
    <g id="Symbols" stroke="none" stroke-width="1" fill="none" fill-rule="evenodd">
        <g id="layout/topbar/mobile" transform="translate(-15.000000, -15.000000)" fill-rule="nonzero">
            <g id="logo" transform="translate(15.000000, 15.000000)">
                <g id="Group" transform="translate(95.650568, 0.000000)">
                    <polygon id="Path" fill="#000000" points="38.8983172 2.49320757 36.4164366 9.65567313 33.4009266 9.75509937 35.8840657 2.59389238"></polygon>
                    <polygon id="Path" fill="#000000" points="32.7464754 1.9180456 30.2645948 9.0792526 30.361504 7.50982815 32.8433845 0.348621149"></polygon>
                    <polygon id="Path" fill="#000000" points="31.1644653 2.70842135 28.6813262 9.8708869 25.6683333 9.97157171 28.1502139 2.80910615"></polygon>
                    <polygon id="Path" fill="#000000" points="27.105609 2.9085324 24.6237285 10.0697394 21.609477 10.1704242 24.0913575 3.00795865"></polygon>
                    <polygon id="Path" fill="#808080" points="36.403851 12.5063118 33.9219705 19.6687773 33.4009266 9.75509937 35.8840657 2.59389238"></polygon>
                    <polygon id="Path" fill="#000000" points="36.3459573 12.5088289 33.8640767 19.6700359 28.6813262 9.8708869 31.1644653 2.70842135"></polygon>
                    <polygon id="Path" fill="#818181" points="34.6783651 15.4739965 32.1964846 22.636462 25.6683333 9.97157171 28.1502139 2.80910615"></polygon>
                    <polygon id="Path" fill="#000000" points="27.7952999 5.34888045 25.3134194 12.511346 24.6237285 10.0697394 27.105609 2.9085324"></polygon>
                    <polygon id="Path" fill="#000000" points="15.5721642 2.32833619 13.0902837 9.48954319 12.6346849 8.13533252 15.1165654 0.974125521"></polygon>
                    <polygon id="Path" fill="#9E9E9E" points="27.7952999 5.34888045 25.3134194 12.511346 21.6157698 12.6346849 24.0989089 5.4734779"></polygon>
                    <polygon id="Path" fill="#000000" points="24.0913575 3.00795865 21.609477 10.1704242 14.6848793 10.4007407 17.1667598 3.23953371"></polygon>
                    <polygon id="Path" fill="#9E9E9E" points="24.0989089 5.4734779 21.6157698 12.6346849 18.3913388 12.7529895 20.8732193 5.59052399"></polygon>
                    <polygon id="Path" fill="#000000" points="16.176273 5.02920618 13.6943925 12.1916717 11.0627433 10.522821 13.5446238 3.36035548"></polygon>
                    <polygon id="Path" fill="#000000" points="36.403851 12.5063118 33.9219705 19.6687773 33.8640767 19.6700359 36.3459573 12.5088289"></polygon>
                    <polygon id="Path" fill="#000000" points="21.6447167 8.31908229 19.1628362 15.4815479 18.3913388 12.7529895 20.8732193 5.59052399"></polygon>
                    <polygon id="Path" fill="#000000" points="25.5412188 8.19826052 23.0593382 15.3607261 19.1628362 15.4815479 21.6447167 8.31908229"></polygon>
                    <polygon id="Path" fill="#000000" points="26.2535638 10.6600041 23.7716833 17.8224696 23.0593382 15.3607261 25.5412188 8.19826052"></polygon>
                    <polygon id="Path" fill="#000000" points="39.5678711 15.3116422 37.0859906 22.4728492 36.4164366 9.65567313 38.8983172 2.49320757"></polygon>
                    <polygon id="Path" fill="#000000" points="13.5446238 3.36035548 11.0627433 10.522821 3.26344635 10.7820844 5.74532688 3.61961886"></polygon>
                    <polygon id="Path" fill="#808080" points="18.6203968 8.38578598 16.1385162 15.546993 14.6848793 10.4007407 17.1667598 3.23953371"></polygon>
                    <polygon id="Path" fill="#9E9E9E" points="13.3621326 5.84097745 10.8802521 13.0021844 6.96990586 13.1330747 9.45178639 5.97060914"></polygon>
                    <polygon id="Path" fill="#9E9E9E" points="26.2535638 10.6600041 23.7716833 17.8224696 19.8600785 17.9521013 22.341959 10.7908943"></polygon>
                    <polygon id="Path" fill="#9E9E9E" points="39.5678711 15.3116422 37.0859906 22.4728492 32.1964846 22.636462 34.6783651 15.4739965"></polygon>
                    <polygon id="Path" fill="#808080" points="6.43753494 6.07255251 3.95565441 13.2337595 3.26344635 10.7820844 5.74532688 3.61961886"></polygon>
                    <polygon id="Path" fill="#000000" points="30.7063494 15.652712 28.2244689 22.8151776 27.5523978 20.4427918 30.0342783 13.2803262"></polygon>
                    <polygon id="Path" fill="#000000" points="30.0342783 13.2803262 27.5523978 20.4427918 20.6290587 20.6731083 23.1109392 13.5119013"></polygon>
                    <polygon id="Path" fill="#000000" points="23.1109392 13.5119013 20.6290587 20.6731083 19.8600785 17.9521013 22.341959 10.7896358"></polygon>
                    <polygon id="Path" fill="#000000" points="33.9886742 17.6575983 31.5067937 24.8188053 30.1437731 22.8114019 32.6256536 15.6489363"></polygon>
                    <polygon id="Path" fill="#808080" points="20.7662417 15.9837133 18.2843612 23.1461789 16.1385162 15.546993 18.6203968 8.38578598"></polygon>
                    <polygon id="Path" fill="#000000" points="18.7978537 14.3123455 16.3159732 21.4735525 13.6943925 12.1916717 16.176273 5.02920618"></polygon>
                    <polygon id="Path" fill="#808080" points="15.578457 13.6818069 13.0965765 20.8442725 10.8802521 13.0021844 13.3621326 5.84097745"></polygon>
                    <polygon id="Path" fill="#F6F6F6" points="17.1667598 3.23953371 24.0913575 3.00795865 27.105609 2.9085324 27.7952999 5.34888045 24.0989089 5.4734779 20.8732193 5.59052399 21.6447167 8.31908229 25.5412188 8.19826052 26.2535638 10.6600041 22.341959 10.7908943 23.1109392 13.5119013 30.0342783 13.2803262 30.7063494 15.652712 20.7662417 15.9837133 18.6203968 8.38578598"></polygon>
                    <polygon id="Path" fill="#9E9E9E" points="30.7063494 15.652712 28.2244689 22.8151776 18.2843612 23.1461789 20.7662417 15.9837133"></polygon>
                    <polygon id="Path" fill="#000000" points="15.578457 13.6818069 13.0965765 20.8442725 9.18497165 20.9739041 11.6668522 13.8126972"></polygon>
                    <polygon id="Path" fill="#000000" points="11.6668522 13.8126972 9.18497165 20.9739041 6.96990586 13.1330747 9.45178639 5.97060914"></polygon>
                    <polygon id="Path" fill="#949494" points="18.7978537 14.3123455 16.3159732 21.4735525 14.6622252 23.2670007 17.1441057 16.1045351"></polygon>
                    <polygon id="Path" fill="#9E9E9E" points="17.1441057 16.1045351 14.6622252 23.2670007 9.87843826 23.4268378 12.3603188 16.2643722"></polygon>
                    <polygon id="Path" fill="#9E9E9E" points="12.3603188 16.2643722 9.87843826 23.4268378 6.86418681 23.526264 9.34606734 16.365057"></polygon>
                    <polygon id="Path" fill="#808080" points="9.34606734 16.365057 6.86418681 23.526264 3.95565441 13.2337595 6.43753494 6.07255251"></polygon>
                    <path d="M32.8484187,0.348621149 L41.1096073,0.106977609 L42.9974474,17.3568024 L33.9962256,17.6575983 L32.633205,15.6439021 L33.2926905,17.6752181 L7.38648926,18.5373318 L2.52970581,1.39322604 L13.7069781,1.015658 L15.5721642,2.32833619 L15.1165654,0.974125521 L31.514345,0.377568031 L32.7464754,1.92056272 L32.8484187,0.348621149 Z M27.7952999,5.34888045 L27.105609,2.9085324 L24.0850647,3.00795865 L17.1629842,3.23953371 L18.6266896,8.38578598 L20.7662417,15.9837133 L30.7088666,15.652712 L30.0367955,13.2803262 L23.1147149,13.5119013 L22.3457347,10.7908943 L26.2573395,10.6650383 L25.5449945,8.20455332 L21.6434581,8.32411653 L20.8719608,5.59555823 L24.0989089,5.48858062 L27.7940414,5.35391469 M17.1441057,16.1095693 L18.7978537,14.3173798 L16.176273,5.03424042 L13.5446238,3.36035548 L5.7415512,3.61961886 L6.43375926,6.07129395 L9.34606734,16.3612814 L12.3666116,16.2605966 L17.14914,16.1007594 M39.5729054,15.3078666 L38.9033514,2.48943189 L35.8828072,2.5901167 L36.403851,12.5025361 L36.3459573,12.5025361 L31.1632068,2.70212855 L28.1502139,2.80281335 L34.6783651,15.4802893 L39.5678711,15.317935" id="Shape" fill="#000000"></path>
                    <polygon id="Path" fill="#F6F6F6" points="28.1502139 2.80910615 31.1644653 2.70842135 36.3459573 12.5088289 36.403851 12.5063118 35.8840657 2.59389238 38.8983172 2.49320757 39.5678711 15.3116422 34.6783651 15.4739965"></polygon>
                    <polygon id="Path" fill="#000000" points="42.9898961 17.3568024 40.5080155 24.519268 31.5067937 24.8188053 33.9886742 17.6575983"></polygon>
                    <polygon id="Path" fill="#000000" points="11.6668522 13.8126972 9.45178639 5.97060914 13.3621326 5.84097745 15.578457 13.6818069"></polygon>
                    <path d="M13.5446238,3.36035548 L16.176273,5.03424042 L18.7978537,14.3173798 L17.1441057,16.1095693 L12.3615774,16.2694065 L9.3410331,16.3700913 L6.43753494,6.07255251 L5.74532688,3.61961886 L13.5446238,3.36035548 Z M15.578457,13.6805483 L13.3621326,5.83971889 L9.45178639,5.9655749 L11.6668522,13.8076629 L15.578457,13.6818069" id="Shape" fill="#F6F6F6"></path>
                    <polygon id="Path" fill="#000000" points="33.2851391 17.6815109 30.8032586 24.8427179 4.89705737 25.7060901 7.3789379 18.5436246"></polygon>
                    <polygon id="Path" fill="#000000" points="7.3789379 18.5436246 4.89705737 25.7060901 0.047825284 8.55569159 2.52970581 1.39322604"></polygon>
                </g>
                <g id="dot" transform="translate(89.861191, 12.459745)">
                    <g id="Group" fill="#000000">
                        <polygon id="Path" points="2.52467157 0.328484187 9.51723151 0.0943920079 11.1244128 5.78182512 4.13185282 6.01717586"></polygon>
                        <polygon id="Path" points="11.1244128 5.78182512 8.64253224 12.9442907 1.6499723 13.1783829 4.13185282 6.01717586"></polygon>
                        <polygon id="Path" points="4.13185282 6.01717586 1.6499723 13.1783829 0.0427910436 7.48969118 2.52467157 0.328484187"></polygon>
                    </g>
                    <g id="piece-2" transform="translate(4.404960, 2.013696)" fill="#F3F3F3">
                        <polygon id="Path" points="0.0541180845 0.273107543 4.18471235 0.11704609 4.89579881 3.44467901 0.765204544 3.5994819"></polygon>
                    </g>
                </g>
                <g id="Group" transform="translate(0.000000, 1.132704)">
                    <polygon id="Path" fill="#030303" points="85.1290055 2.42146964 83.3770898 9.42787375 72.5257846 9.83564722 74.2764417 2.82924312"></polygon>
                    <polygon id="Path" fill="#9C9C9C" points="82.5426645 5.05563594 80.7907488 12.06204 76.186936 12.2344628 77.9388516 5.22805868"></polygon>
                    <polygon id="Path" fill="#030303" points="67.4072207 3.08598938 65.655305 10.0923935 62.5328174 10.2106981 64.2834745 3.20429403"></polygon>
                    <polygon id="Path" fill="#030303" points="61.8985031 3.29365179 60.147846 10.3000559 57.0240998 10.417102 58.7760155 3.41069788"></polygon>
                    <polygon id="Path" fill="#030303" points="58.7760155 3.41069788 57.0240998 10.417102 49.8465315 10.6864339 51.5984472 3.68002975"></polygon>
                    <polygon id="Path" fill="#030303" points="87.9242675 15.5016848 86.1723518 22.5080889 83.3770898 9.42787375 85.1290055 2.42146964"></polygon>
                    <polygon id="Path" fill="#808080" points="84.2631161 13.1041278 82.5112005 20.1105319 80.7907488 12.06204 82.5426645 5.05563594"></polygon>
                    <polygon id="Path" fill="#9C9C9C" points="59.3134206 5.92655953 57.5627635 12.9329636 53.5089414 13.0852494 55.2595985 6.07884531"></polygon>
                    <polygon id="Path" fill="#808080" points="52.1358523 6.19714996 50.3851952 13.2035541 49.8465315 10.6864339 51.5984472 3.68002975"></polygon>
                    <polygon id="Path" fill="#050505" points="79.5208617 13.2815848 77.9388516 5.22680012 82.5426645 5.05563594 84.2618576 13.1041278"></polygon>
                    <polygon id="Path" fill="#030303" points="84.2618576 13.1041278 82.5112005 20.1105319 77.768946 20.2879889 79.5208617 13.2815848"></polygon>
                    <polygon id="Path" fill="#030303" points="79.5208617 13.2815848 77.768946 20.2879889 76.186936 12.2344628 77.9388516 5.22680012"></polygon>
                    <polygon id="Path" fill="#030303" points="50.474553 6.2588194 48.7238959 13.2652235 48.1864907 10.7493619 49.9371478 3.74169919"></polygon>
                    <polygon id="Path" fill="#030303" points="49.9371478 3.74169919 48.1864907 10.7493619 37.8851763 11.1357398 39.6370919 4.12807714"></polygon>
                    <polygon id="Path" fill="#808080" points="76.3971155 13.3986309 74.6464584 20.405035 72.5257846 9.83564722 74.2777003 2.82924312"></polygon>
                    <polygon id="Path" fill="#9C9C9C" points="79.5963753 13.2790677 77.8444596 20.2854718 74.6464584 20.405035 76.3971155 13.3986309"></polygon>
                    <polygon id="Path" fill="#030303" points="37.5151596 4.15324835 35.7632439 11.1596525 32.6394978 11.2766985 34.3914134 4.27029444"></polygon>
                    <polygon id="Path" fill="#9C9C9C" points="50.474553 6.2588194 48.7238959 13.2652235 41.5463276 13.5345554 43.2969847 6.52815126"></polygon>
                    <polygon id="Path" fill="#808080" points="80.1337804 15.7949293 78.3818648 22.8013334 77.8444596 20.2854718 79.5963753 13.2790677"></polygon>
                    <polygon id="Path" fill="#9C9C9C" points="87.9242675 15.5016848 86.1723518 22.5080889 78.3818648 22.8013334 80.1337804 15.7949293"></polygon>
                    <path d="M74.2777003,2.82924312 L85.1290055,2.42146964 L87.9242675,15.5016848 L80.1337804,15.7949293 L79.5963753,13.2778091 L76.3971155,13.4036651 L74.2777003,2.82924312 Z M84.2631161,13.1041278 L82.5426645,5.05563594 L77.9388516,5.22805868 L79.5208617,13.2828433 L84.2631161,13.1053864" id="Shape" fill="#F3F3F3"></path>
                    <polygon id="Path" fill="#030303" points="69.6638189 13.6516015 67.9131618 20.6580056 65.655305 10.0923935 67.4072207 3.08598938"></polygon>
                    <polygon id="Path" fill="#030303" points="76.3971155 13.3986309 74.6464584 20.405035 67.9131618 20.6580056 69.6638189 13.6516015"></polygon>
                    <polygon id="Path" fill="#030303" points="34.3914134 4.27029444 32.6394978 11.2766985 25.4619295 11.5460304 27.2138451 4.5396263"></polygon>
                    <polygon id="Path" fill="#030303" points="51.0660763 9.02387595 49.3141606 16.0302801 42.1378509 16.3008705 43.888508 9.29320782"></polygon>
                    <polygon id="Path" fill="#030303" points="43.888508 9.29320782 42.1378509 16.3008705 41.5463276 13.5345554 43.2969847 6.52815126"></polygon>
                    <polygon id="Path" fill="#808080" points="67.0787365 16.2845092 65.3280794 23.2909133 62.5328174 10.2106981 64.2834745 3.20429403"></polygon>
                    <polygon id="Path" fill="#030303" points="64.6937651 16.373867 62.943108 23.3802711 60.147846 10.3000559 61.8985031 3.29365179"></polygon>
                    <polygon id="Path" fill="#808080" points="61.0326137 13.9750514 59.2819566 20.9827141 57.5627635 12.9329636 59.3134206 5.92655953"></polygon>
                    <polygon id="Path" fill="#9C9C9C" points="34.9288186 6.78615609 33.1781615 13.7925602 29.1243394 13.944846 30.8749965 6.93844186"></polygon>
                    <polygon id="Path" fill="#030303" points="25.0654831 4.65541383 23.3135674 11.6618179 20.1898212 11.778864 21.9417369 4.77120136"></polygon>
                    <polygon id="Path" fill="#F3F3F3" points="64.2834745 3.20429403 67.4072207 3.08598938 69.6638189 13.6516015 76.3971155 13.3986309 79.5963753 13.2790677 80.1337804 15.7949293 67.0787365 16.2845092"></polygon>
                    <polygon id="Path" fill="#9C9C9C" points="80.1337804 15.7949293 78.3818648 22.8013334 65.3280794 23.2909133 67.0787365 16.2845092"></polygon>
                    <polygon id="Path" fill="#050505" points="56.9800502 14.1273372 55.2595985 6.07884531 59.3134206 5.92655953 61.0326137 13.9750514"></polygon>
                    <polygon id="Path" fill="#030303" points="56.9800502 14.1273372 55.2281345 21.1337413 53.5089414 13.0852494 55.2595985 6.07884531"></polygon>
                    <polygon id="Path" fill="#030303" points="61.0326137 13.9750514 59.2819566 20.9827141 55.2281345 21.1337413 56.9800502 14.1273372"></polygon>
                    <polygon id="Path" fill="#808080" points="54.3937092 16.7602449 52.6417935 23.766649 50.3851952 13.2035541 52.1358523 6.19714996"></polygon>
                    <polygon id="Path" fill="#030303" points="52.1950047 14.3073113 50.4443476 21.3137154 49.3141606 16.0302801 51.0660763 9.02387595"></polygon>
                    <polygon id="Path" fill="#030303" points="21.9417369 4.77120136 20.1898212 11.778864 13.0122529 12.0481959 14.7641686 5.04179178"></polygon>
                    <polygon id="Path" fill="#808080" points="41.302167 11.9273741 39.5515099 18.9337782 37.8851763 11.1357398 39.6370919 4.12807714"></polygon>
                    <polygon id="Path" fill="#9C9C9C" points="48.4797352 11.6580423 46.7290781 18.6644464 39.5515099 18.9337782 41.302167 11.9273741"></polygon>
                    <polygon id="Path" fill="#808080" points="49.0712585 14.4243574 47.3206014 21.4307615 46.7290781 18.6644464 48.4797352 11.6580423"></polygon>
                    <polygon id="Path" fill="#9C9C9C" points="64.6937651 16.373867 62.943108 23.3802711 55.7655397 23.6508615 57.5174554 16.6444574"></polygon>
                    <polygon id="Path" fill="#9C9C9C" points="22.479142 7.28958013 20.7272264 14.2959842 16.6746628 14.4470114 18.4253199 7.44060734"></polygon>
                    <polygon id="Path" fill="#9C9C9C" points="57.5174554 16.6444574 55.7655397 23.6508615 52.6417935 23.766649 54.3937092 16.7602449"></polygon>
                    <polygon id="Path" fill="#030303" points="52.7324098 16.8231729 50.9804942 23.829577 50.4443476 21.3137154 52.1950047 14.3073113"></polygon>
                    <polygon id="Path" fill="#030303" points="49.0712585 14.4243574 47.3206014 21.4307615 40.1430331 21.7000933 41.8936902 14.6936892"></polygon>
                    <polygon id="Path" fill="#030303" points="7.90375746 5.31993356 6.15310035 12.3275962 3.02935417 12.4433838 4.78001128 5.43697965"></polygon>
                    <polygon id="Path" fill="#808080" points="23.0706653 10.0546367 21.3187496 17.0610408 20.7272264 14.2959842 22.479142 7.28958013"></polygon>
                    <polygon id="Path" fill="#030303" points="19.0155846 10.2069225 17.2649275 17.2133266 16.6746628 14.4470114 18.4253199 7.44060734"></polygon>
                    <polygon id="Path" fill="#030303" points="23.0706653 10.0546367 21.3187496 17.0610408 17.2649275 17.2133266 19.0155846 10.2069225"></polygon>
                    <polygon id="Path" fill="#050505" points="19.0155846 10.2069225 18.4253199 7.44060734 22.479142 7.28958013 23.0706653 10.0546367"></polygon>
                    <polygon id="Path" fill="#808080" points="15.893097 10.3239685 14.1411813 17.3303726 13.0122529 12.0481959 14.7641686 5.04179178"></polygon>
                    <polygon id="Path" fill="#808080" points="42.4323539 17.2095509 40.6804383 24.215955 40.1430331 21.7000933 41.8936902 14.6936892"></polygon>
                    <polygon id="Path" fill="#9C9C9C" points="52.7324098 16.8231729 50.9804942 23.829577 40.6804383 24.215955 42.4323539 17.2095509"></polygon>
                    <polygon id="Path" fill="#F3F3F3" points="39.6370919 4.12807714 49.9384064 3.74169919 50.474553 6.2588194 43.2969847 6.52815126 43.888508 9.29320782 51.0660763 9.02387595 52.1950047 14.3073113 52.7324098 16.8231729 42.4323539 17.2095509 41.8936902 14.6936892 49.0712585 14.4243574 48.4797352 11.6580423 41.302167 11.9273741"></polygon>
                    <polygon id="Path" fill="#030303" points="40.3897109 17.609773 38.6390538 24.6161771 35.7632439 11.1596525 37.5151596 4.15324835"></polygon>
                    <polygon id="Path" fill="#030303" points="33.1328533 17.5027954 31.3809377 24.5091995 29.1243394 13.944846 30.8749965 6.93844186"></polygon>
                    <polygon id="Path" fill="#808080" points="30.0091071 17.6211 28.25845 24.6275041 25.463188 11.547289 27.2138451 4.5396263"></polygon>
                    <polygon id="Path" fill="#030303" points="27.860745 17.735629 26.1088294 24.7420331 23.3135674 11.6618179 25.0654831 4.65541383"></polygon>
                    <polygon id="Path" fill="#9C9C9C" points="23.6068119 12.5704983 21.8561548 19.578161 17.8035912 19.7291882 19.5542484 12.7227841"></polygon>
                    <polygon id="Path" fill="#808080" points="37.2672233 17.7280776 35.5153076 24.7344817 33.1781615 13.7925602 34.9288186 6.78615609"></polygon>
                    <polygon id="Path" fill="#9C9C9C" points="40.3909694 17.609773 38.6390538 24.6161771 35.5153076 24.7344817 37.2672233 17.7280776"></polygon>
                    <polygon id="Path" fill="#F3F3F3" points="27.2138451 4.5396263 34.3914134 4.27029444 37.5151596 4.15324835 40.3909694 17.609773 37.2672233 17.7280776 34.9288186 6.78615609 30.8749965 6.93844186 33.1328533 17.5027954 30.0091071 17.6211"></polygon>
                    <polygon id="Path" fill="#9C9C9C" points="33.1328533 17.5027954 31.3809377 24.510458 28.25845 24.6275041 30.0091071 17.6211"></polygon>
                    <polygon id="Path" fill="#030303" points="20.2703691 16.3461786 18.5197119 23.3525827 17.8023327 19.7291882 19.5542484 12.7227841"></polygon>
                    <polygon id="Path" fill="#9C9C9C" points="20.3270043 16.3449201 18.5763471 23.3513242 18.5197119 23.3525827 20.2716276 16.3461786"></polygon>
                    <polygon id="Path" fill="#808080" points="20.2716276 16.3461786 18.5197119 23.3525827 18.3409964 22.5181574 20.0929121 15.5117533"></polygon>
                    <polygon id="Path" fill="#808080" points="17.0258011 15.6262823 15.2738854 22.6339449 14.1411813 17.3303726 15.893097 10.3239685"></polygon>
                    <polygon id="Path" fill="#9C9C9C" points="20.0929121 15.5117533 18.3409964 22.5181574 15.2738854 22.6339449 17.0258011 15.6262823"></polygon>
                    <path d="M21.9417369,4.77245992 L25.0654831,4.65667239 L27.860745,17.7368876 L24.7369989,17.8539336 L23.6042948,12.5679812 L19.5517312,12.720267 L20.3244871,16.342403 L20.2691105,16.342403 L20.090395,15.5079776 L17.023284,15.6237651 L15.8905799,10.3201929 L14.7578758,5.03424042 L21.9417369,4.77245992 Z M23.074441,10.0584124 L22.4829177,7.28958013 L18.4290956,7.44060734 L19.0206189,10.2094396 L23.074441,10.0571538" id="Shape" fill="#F3F3F3"></path>
                    <polygon id="Path" fill="#808080" points="24.7369989 17.8526751 22.9850832 24.8590792 21.8561548 19.578161 23.6068119 12.5704983"></polygon>
                    <polygon id="Path" fill="#9C9C9C" points="27.860745 17.735629 26.1088294 24.7420331 22.9850832 24.8590792 24.7369989 17.8526751"></polygon>
                    <polygon id="Path" fill="#030303" points="20.6303172 18.0276149 18.8796601 25.034019 18.5197119 23.3525827 20.2703691 16.3461786"></polygon>
                    <polygon id="Path" fill="#030303" points="17.0258011 15.6275408 15.2738854 22.6339449 8.41095718 22.8906912 10.1616143 15.8842871"></polygon>
                    <polygon id="Path" fill="#030303" points="10.1616143 15.8842871 8.41095718 22.8906912 6.15310035 12.3275962 7.90375746 5.31993356"></polygon>
                    <polygon id="Path" fill="#808080" points="7.57527327 18.5184534 5.82461617 25.5248575 3.02935417 12.4433838 4.78001128 5.43697965"></polygon>
                    <polygon id="Path" fill="#9C9C9C" points="20.6303172 18.0276149 18.8796601 25.0352776 5.82461617 25.5248575 7.57527327 18.5184534"></polygon>
                    <polygon id="Path" fill="#F3F3F3" points="4.78001128 5.43697965 7.90375746 5.32119212 10.1616143 15.8842871 17.0258011 15.6262823 20.0929121 15.5117533 20.2716276 16.3461786 20.6303172 18.0276149 7.57527327 18.5184534"></polygon>
                    <path d="M1.75065711,3.29239323 L87.7619132,0.0629280052 L91.5199737,17.6550812 L5.5112347,20.8845464 L1.75065711,3.29239323 Z M87.9242675,15.5004263 L85.1290055,2.42146964 L74.2764417,2.82924312 L76.3971155,13.401148 L69.6638189,13.65286 L67.4072207,3.08598938 L64.2834745,3.20429403 L67.0812536,16.2845092 L80.1362976,15.7949293 L87.9267846,15.5016848 M24.7369989,17.8526751 L27.860745,17.735629 L25.0654831,4.65667239 L21.9417369,4.77371848 L14.7679443,5.04305034 L15.9006484,10.3290028 L17.0333525,15.6325751 L10.1691656,15.8842871 L7.90375746,5.31993356 L4.7825284,5.43697965 L7.57527327,18.5184534 L20.6303172,18.0276149 L20.2703691,16.3461786 L19.5542484,12.7227841 L23.6068119,12.5704983 L24.739516,17.8564508 M37.2697404,17.7305948 L40.392228,17.6122901 L37.5151596,4.15324835 L34.3914134,4.27029444 L27.2176208,4.5396263 L30.0091071,17.6198415 L33.1328533,17.5015368 L30.8749965,6.93844186 L34.9288186,6.78615609 L37.2672233,17.7280776 M57.5161968,16.6431988 L64.6899894,16.373867 L61.8985031,3.29365179 L58.7747569,3.41069788 L51.6009643,3.68002975 L52.1383695,6.19714996 L54.3949677,16.7602449 L57.5199725,16.6431988 M52.7374441,16.8231729 L52.2012975,14.3060527 L51.0685934,9.02010027 L43.8948008,9.29069069 L43.3032775,6.52185846 L50.4770701,6.2525266 L49.939665,3.73540639 L39.6370919,4.12807714 L41.302167,11.9311498 L48.4759596,11.6618179 L49.0674828,14.4306502 L41.8936902,14.699982 L42.4323539,17.2171022 L52.7336684,16.8231729" id="Shape" fill="#050505"></path>
                    <path d="M58.7747569,3.41069788 L61.8972445,3.29365179 L64.6899894,16.373867 L57.5161968,16.6431988 L54.3924506,16.7602449 L52.1358523,6.19714996 L51.5984472,3.68002975 L58.7747569,3.41069788 Z M61.0326137,13.9700172 L59.3134206,5.92655953 L55.2595985,6.07884531 L56.9800502,14.13363 L61.0326137,13.9813442" id="Shape" fill="#F3F3F3"></path>
                    <polygon id="Path" fill="#030303" points="5.50997614 20.8845464 3.75931903 27.8909505 0 10.2987973 1.75065711 3.29239323"></polygon>
                    <polygon id="Path" fill="#030303" points="91.5199737 17.6550812 89.768058 24.6627438 3.75931903 27.8909505 5.50997614 20.8845464"></polygon>
                </g>
            </g>
        </g>
    </g>
</svg>